<?xml version="1.0" encoding="utf-8"?>
<svg id="БесконечныеПриключенияTestArtМаксвелл" image-rendering="auto" baseProfile="basic" version="1.1" x="0px" y="0px" width="400" height="1080" xmlns="http://www.w3.org/2000/svg" xmlns:xlink="http://www.w3.org/1999/xlink">
  <defs>
    <g id=".__D1.__81.__D1.__82.__D1.__83.__D0.__BF.__D0.__BD.__D1.__8F" overflow="visible">
      <path fill="#262427" stroke="none" d="M-27.6 45.1Q-13.6 48.55 -3.25 40.25 -5.95 23.1 0 4.2 -14.6 -3.65 -34.75 3.15 -39.3 12.65 -53 17.9 -66.75 23.1 -78.95 22L-94.85 16.8 -111.1 49.3 -95.15 50 -84.8 39.25 -95.15 50Q-58.45 40.85 -27.6 45.1Z"/>
      <path id="Layer1_0_1_STROKES" stroke="#000" stroke-width="6" stroke-linejoin="round" stroke-linecap="round" fill="none" d="M-95.15 50Q-58.45 40.85 -27.6 45.1 -13.6 48.55 -3.25 40.25 -5.95 23.1 0 4.2M-34.75 3.15Q-39.3 12.65 -53 17.9 -66.75 23.1 -78.95 22L-94.85 16.8 -111.1 49.3 -95.15 50 -84.8 39.25"/>
    </g>
    <g id=".__D0.__BD.__D0.__BE.__D0.__B3.__D0.__B0_2" overflow="visible">
      <path fill="#262427" stroke="none" d="M36.55 88.5L28.1 82.35 35.9 77.45Q21.85 50.85 18.35 28.1 15.4 -11.1 -22.25 4.4 -34.7 19.15 -36.55 44.05L-24.95 34.3Q-37.6 121.8 -20.95 215.55 -11 223.55 2.75 220.4 22.65 184.75 23.15 144.2 23.65 103.65 36.55 88.5Z"/>
      <path id="Layer2_0_1_STROKES" stroke="#000" stroke-width="6" stroke-linejoin="round" stroke-linecap="round" fill="none" d="M18.35 28.1Q21.85 50.85 35.9 77.45L28.1 82.35 36.55 88.5Q23.65 103.65 23.15 144.2 22.65 184.75 2.75 220.4 -11 223.55 -20.95 215.55 -37.6 121.8 -24.95 34.3L-36.55 44.05Q-34.7 19.15 -22.25 4.4"/>
    </g>
    <g id=".__D0.__BA.__D0.__B8.__D1.__81.__D1.__82.__D1.__8C" overflow="visible">
      <path fill="#262427" stroke="none" d="M-8.1 49.35Q-16.45 23.1 -8.3 3.2 -21.75 22.2 -16.2 52.25 -11.15 60.3 -2.6 59.45L-3.8 51.8Q-5.95 50.85 -8.1 49.35M.5 25.3Q.306 22.438 .65 19.7 .306 22.438 .5 25.3 9.442 30.430 17.7 23.2 4.214 3.754 4.55 0L-7.55 1.45Q-7.8 2 -8 2.55L-8.3 3.2Q-16.45 23.1 -8.1 49.35 -5.95 50.85 -3.8 51.8 2.15 54.3 8.05 52.5 2.062 46.708 .5 25.3Z"/>
      <path id="Layer3_0_1_STROKES" stroke="#000" stroke-width="6" stroke-linejoin="round" stroke-linecap="round" fill="none" d="M.5 25.3Q.306 22.438 .65 19.7M4.55 0Q4.214 3.754 17.7 23.2 9.442 30.430 .5 25.3 2.062 46.708 8.05 52.5 2.15 54.3 -3.8 51.8L-2.6 59.45Q-11.15 60.3 -16.2 52.25 -21.75 22.2 -8.3 3.2L-8 2.55Q-7.8 2 -7.55 1.45M-8.3 3.2Q-16.45 23.1 -8.1 49.35 -5.95 50.85 -3.8 51.8"/>
    </g>
    <g id=".__D1.__80.__D1.__83.__D0.__BA.__D0.__B0_2" overflow="visible">
      <path fill="#262427" stroke="none" d="M12.65 118.25Q32.6 26.65 12.65 5.45 -1.113 -6.769 -12 8.4 -17.694 16.315 -22.6 31.7 -13.95 24.35 -10.45 26.25 -17.35 70.9 -6.4 121.45 3.15 130 12.65 118.25Z"/>
      <path id="Layer4_0_1_STROKES" stroke="#000" stroke-width="6" stroke-linejoin="round" stroke-linecap="round" fill="none" d="M-12 8.4Q-17.694 16.315 -22.6 31.7 -13.95 24.35 -10.45 26.25 -17.35 70.9 -6.4 121.45 3.15 130 12.65 118.25 32.6 26.65 12.65 5.45"/>
    </g>
    <g id=".__D0.__B1.__D1.__80.__D0.__BE.__D0.__B2.__D1.__8Cf1" overflow="visible">
      <path id="Layer5_0_1_STROKES" stroke="#000" stroke-width="6" stroke-linejoin="round" stroke-linecap="round" fill="none" d="M32 10.65Q6.75 -30.4 -30.25 -8.6"/>
    </g>
    <g id=".__D0.__B2.__D0.__BE.__D1.__80.__D0.__BE.__D1.__82.__D0.__BD.__D0.__B8.__D0.__BA" overflow="visible">
      <path fill="#262427" stroke="none" d="M-11 -21.35Q-12.35 -10.2 -17.25 -1.6 -10.25 16.25 3.25 21.4 15.65 4.95 17.25 -6.1 4.55 -19.4 -11 -21.35Z"/>
      <path id="Layer10_0_1_STROKES" stroke="#000" stroke-width="6" stroke-linejoin="round" stroke-linecap="round" fill="none" d="M17.25 -6.1Q4.55 -19.4 -11 -21.35 -12.35 -10.2 -17.25 -1.6 -10.25 16.25 3.25 21.4 15.65 4.95 17.25 -6.1Z"/>
    </g>
    <g id=".__D1.__83.__D1.__85.__D0.__BE" overflow="visible">
      <path fill="#FA9A4E" stroke="none" d="M14.3 -48.3Q19.75 -35.75 22.85 -22.35L13.85 -22.35Q21.35 -12.6 26.35 4.8L14.85 1.15Q26.7 13.2 29.85 20.15 69.25 106.1 -5.15 76.4 -22.75 58.75 -24.9 31.65L-32.4 37.4Q-39.7 22.8 -37.15 4.65L-45.9 14.9 -51.6 -4.2Q-53.3 27.1 -57.15 58.15L-41.15 83.15 -51.15 88.15 -29.15 95.15Q-37.65 102.45 -46.15 102.15 -36.05 109.5 -20.15 109.15 70.8 113.65 54.8 17.65 39.45 -17.7 14.3 -48.3Z"/>
      <path fill="#FFDECB" stroke="none" d="M22.85 -22.35Q19.75 -35.75 14.3 -48.3 -13.15 -81.6 -52.15 -109.35 -48.8 -56.4 -51.6 -4.2L-45.9 14.9 -37.15 4.65Q-39.7 22.8 -32.4 37.4L-24.9 31.65Q-22.75 58.75 -5.15 76.4 69.25 106.1 29.85 20.15 26.7 13.2 14.85 1.15L26.35 4.8Q21.35 -12.6 13.85 -22.35L22.85 -22.35Z"/>
      <path id="Layer12_0_1_STROKES" stroke="#000" stroke-width="6" stroke-linejoin="round" stroke-linecap="round" fill="none" d="M-51.6 -4.2L-45.9 14.9 -37.15 4.65Q-39.7 22.8 -32.4 37.4L-24.9 31.65Q-22.75 58.75 -5.15 76.4 69.25 106.1 29.85 20.15 26.7 13.2 14.85 1.15L26.35 4.8Q21.35 -12.6 13.85 -22.35L22.85 -22.35Q19.75 -35.75 14.3 -48.3 -13.15 -81.6 -52.15 -109.35 -48.8 -56.4 -51.6 -4.2 -53.3 27.1 -57.15 58.15L-41.15 83.15 -51.15 88.15 -29.15 95.15Q-37.65 102.45 -46.15 102.15 -36.05 109.5 -20.15 109.15 70.8 113.65 54.8 17.65 39.45 -17.7 14.3 -48.3"/>
    </g>
    <g id=".__D1.__80.__D1.__83.__D0.__BA.__D0.__B0_3" overflow="visible">
      <path fill="#FA9A4E" stroke="none" d="M-88.3 143.65Q-89.904 154.853 -97.85 160.65 -92.066 167.599 -69.3 170.15 -56.829 146.755 -53.7 116.95 -64.930 108.234 -76.6 95.25 -85.381 117.523 -88.3 143.65Z"/>
      <path fill="#A31919" stroke="none" d="M-45.35 17.3Q-62.7 33.9 -72.85 72.6 -60.8 90.15 -45.9 100.1 -35.45 71.85 -10.95 55.35 12.425 36.970 0 0 -23.6 5.7 -45.35 17.3Z"/>
      <path fill="#CBA23B" stroke="none" d="M-72.85 72.6Q-73.8 71.25 -74.7 69.85 -81.2 77.65 -81.65 89.45 -79.112 92.450 -76.6 95.25 -64.930 108.234 -53.7 116.95 -51.642 118.546 -49.6 120 -43.3 115 -42.7 103.3 -45.05 101.8 -45.9 100.1 -60.8 90.15 -72.85 72.6Z"/>
      <path id="Layer13_0_1_STROKES" stroke="#000" stroke-width="6" stroke-linejoin="round" stroke-linecap="round" fill="none" d="M-76.6 95.25Q-79.112 92.450 -81.65 89.45 -81.2 77.65 -74.7 69.85 -73.8 71.25 -72.85 72.6 -62.7 33.9 -45.35 17.3 -23.6 5.7 0 0M-10.95 55.35Q-35.45 71.85 -45.9 100.1 -45.05 101.8 -42.7 103.3 -43.3 115 -49.6 120 -51.642 118.546 -53.7 116.95 -56.829 146.755 -69.3 170.15 -92.066 167.599 -97.85 160.65 -89.904 154.853 -88.3 143.65 -85.381 117.523 -76.6 95.25 -64.930 108.234 -53.7 116.95M-45.9 100.1Q-60.8 90.15 -72.85 72.6"/>
    </g>
    <g id=".__D0.__BA.__D0.__BE.__D1.__81.__D1.__82.__D1.__8E.__D0.__BC" overflow="visible">
      <path fill="#A31919" stroke="none" d="M-2.75 13.25L-32.25 0Q-51.8 23.8 -54 59.5 -70.45 99.85 -53.85 148 -46.05 170.6 -71.05 233.7 -96.05 296.75 -83 419.95 15.15 154.85 -2.75 13.25M-13.7 97.55Q-20.6 96.85 -20 92.5 -19 84.9 -13 86.25 -8.3 87.35 -8.1 92.05 -7.9 97.5 -13.7 97.55M-13.7 63.05Q-20.6 62.35 -20 58 -19 50.4 -13 51.75 -8.3 52.85 -8.1 57.55 -7.9 63 -13.7 63.05M-17.75 129.25Q-13.05 130.35 -12.85 135.05 -12.65 140.5 -18.45 140.55 -25.35 139.85 -24.75 135.5 -23.75 127.9 -17.75 129.25Z"/>
      <path fill="#CBA23B" stroke="none" d="M-12.85 135.05Q-13.05 130.35 -17.75 129.25 -23.75 127.9 -24.75 135.5 -25.35 139.85 -18.45 140.55 -12.65 140.5 -12.85 135.05M-20 58Q-20.6 62.35 -13.7 63.05 -7.9 63 -8.1 57.55 -8.3 52.85 -13 51.75 -19 50.4 -20 58M-20 92.5Q-20.6 96.85 -13.7 97.55 -7.9 97.5 -8.1 92.05 -8.3 87.35 -13 86.25 -19 84.9 -20 92.5Z"/>
      <path id="Layer14_0_1_STROKES" stroke="#000" stroke-width="6" stroke-linejoin="round" stroke-linecap="round" fill="none" d="M-32.25 0Q-51.8 23.8 -54 59.5 -70.45 99.85 -53.85 148 -46.05 170.6 -71.05 233.7 -96.05 296.75 -83 419.95 15.15 154.85 -2.75 13.25L-32.25 0ZM-13.7 97.55Q-7.9 97.5 -8.1 92.05 -8.3 87.35 -13 86.25 -19 84.9 -20 92.5 -20.6 96.85 -13.7 97.55ZM-13.7 63.05Q-7.9 63 -8.1 57.55 -8.3 52.85 -13 51.75 -19 50.4 -20 58 -20.6 62.35 -13.7 63.05ZM-17.75 129.25Q-23.75 127.9 -24.75 135.5 -25.35 139.85 -18.45 140.55 -12.65 140.5 -12.85 135.05 -13.05 130.35 -17.75 129.25Z"/>
    </g>
    <g id=".__D0.__BD.__D0.__BE.__D0.__B3.__D0.__B0_3" overflow="visible">
      <path fill="#FA9A4E" stroke="none" d="M36.75 92.9Q5.65 62 .8 .5 -8.8 -.95 -20.4 1.95 -47.9 85 -39.25 178.65 -34.4 229.45 4.25 204.65 27.8 152.7 36.75 92.9Z"/>
      <path fill="#FFDECB" stroke="none" d="M36.75 92.9Q40 71.35 41.3 48.75 30.1 4.75 .8 .5 5.65 62 36.75 92.9Z"/>
      <path id="Layer16_0_1_STROKES" stroke="#000" stroke-width="6" stroke-linejoin="round" stroke-linecap="round" fill="none" d="M41.3 48.75Q40 71.35 36.75 92.9 27.8 152.7 4.25 204.65 -34.4 229.45 -39.25 178.65 -47.9 85 -20.4 1.95M36.75 92.9Q5.65 62 .8 .5"/>
    </g>
  </defs>
  <g id=".__D0.__9C.__D0.__BE.__D0.__BD.__D1.__82.__D0.__B0.__D0.__B6.__D0.__BD.__D1.__8B.__D0.__B9-.__D0.__BA.__D0.__B0.__D0.__B4.__D1.__80-1" overflow="visible">
    <g id=".__D1.__85.__D0.__B2.__D0.__BE.__D1.__81.__D1.__82" transform="translate(132.7 617.2)">
      <animateTransform attributeName="transform" additive="replace" type="translate" repeatCount="indefinite" dur="1.25s" keyTimes="0;.267;.667;.967;1" values="171.75,624.05;171.788,616.143;171.836,616.013;171.75,624.05;171.75,624.05" keySplines=".39 0 .548 1;.39 0 .548 1;.39 0 .548 1;.39 0 .548 1" calcMode="spline"/>
      <animateTransform attributeName="transform" additive="sum" type="rotate" repeatCount="indefinite" dur="1.25s" keyTimes="0;.267;.667;.967;1" values="0,0,0;-.265,0,0;-.879,0,0;0,0,0;0,0,0" keySplines=".39 0 .548 1;.39 0 .548 1;.39 0 .548 1;.39 0 .548 1" calcMode="spline"/>
      <animateTransform attributeName="transform" additive="sum" type="skewY" repeatCount="indefinite" dur="1.25s" keyTimes="0;.267;.667;.967;1" values="0;-5.443;-9.843;0;0" keySplines=".39 0 .548 1;.39 0 .548 1;.39 0 .548 1;.39 0 .548 1" calcMode="spline"/>
      <animateTransform attributeName="transform" additive="sum" type="scale" repeatCount="indefinite" dur="1.25s" keyTimes="0;.267;.667;.967;1" values="1,1;1,1.005;1.011,1.004;1,1;1,1" keySplines=".39 0 .548 1;.39 0 .548 1;.39 0 .548 1;.39 0 .548 1" calcMode="spline"/>
      <animateTransform attributeName="transform" additive="sum" type="scale" repeatCount="indefinite" dur="1.25s" keyTimes="0;.266;.666;.966;1" values="1,1;.995,1;.985,1;1,1;1,1"/>
      <animateTransform attributeName="transform" additive="sum" type="translate" repeatCount="indefinite" dur="1.25s" keyTimes="0;.267;.667;.967;1" values="-39.05,-6.85;-39.1,-6.95;-39.15,-6.9;-39.05,-6.85;-39.05,-6.85" keySplines=".39 0 .548 1;.39 0 .548 1;.39 0 .548 1;.39 0 .548 1" calcMode="spline"/>
      <path fill="#FFDECB" stroke="none" d="M251 233.6L247.05 261.55Q240.45 235.6 223.7 217.4 227.45 244.45 216.55 262.55 198.4 231.8 178.2 203.1 194.6 245.55 197.7 285.9 174.05 254 147 246.4 170.8 280.65 164.4 296.7 194.45 337.2 178.55 393.1 245.95 365.6 244.15 270.95L254.5 302.15Q259.1 265.75 251 233.6Z"/>
      <path fill="#FA9A4E" stroke="none" d="M212.95 162.45L235.7 159.85Q172.75 140.4 56.05 7.8 40.8 -6.05 20.3 4.65 -6.85 63.65 2.35 136.35 11.55 209.05 45.4 222.9L46 208.6Q69.55 239.45 102.05 259.85L98.75 247.05Q143.1 268 164.4 296.7 170.8 280.65 147 246.4L144.75 244.65 147 246.4Q174.05 254 197.7 285.9 194.6 245.55 178.2 203.1 198.4 231.8 216.55 262.55 227.45 244.45 223.7 217.4 240.45 235.6 247.05 261.55L251 233.6Q241.2 194.95 212.95 162.45Z"/>
      <path id="Layer17_0_1_STROKES" stroke="#000" stroke-width="6" stroke-linejoin="round" stroke-linecap="round" fill="none" d="M164.4 296.7Q143.1 268 98.75 247.05L102.05 259.85Q69.55 239.45 46 208.6L45.4 222.9Q11.55 209.05 2.35 136.35 -6.85 63.65 20.3 4.65 40.8 -6.05 56.05 7.8 172.75 140.4 235.7 159.85L212.95 162.45Q241.2 194.95 251 233.6 259.1 265.75 254.5 302.15L244.15 270.95Q245.95 365.6 178.55 393.1 194.45 337.2 164.4 296.7 170.8 280.65 147 246.4L144.75 244.65M251 233.6L247.05 261.55Q240.45 235.6 223.7 217.4 227.45 244.45 216.55 262.55 198.4 231.8 178.2 203.1 194.6 245.55 197.7 285.9 174.05 254 147 246.4"/>
    </g>
    <use xlink:href="#.__D0.__BD.__D0.__BE.__D0.__B3.__D0.__B0_3" transform="translate(124.4 637.4)">
      <animateTransform attributeName="transform" additive="replace" type="translate" repeatCount="indefinite" dur="1.25s" keyTimes="0;.467;.967;1" values="125.05,671.3;125.05,663.342;125.05,671.3;125.05,671.3" keySplines=".39 0 .548 1;.39 0 .548 1;.39 0 .548 1" calcMode="spline"/>
      <animateTransform attributeName="transform" additive="sum" type="scale" repeatCount="indefinite" dur="1.25s" keyTimes="0;.467;.967;1" values="1,1;1,1.051;1,1;1,1" keySplines=".39 0 .548 1;.39 0 .548 1;.39 0 .548 1" calcMode="spline"/>
      <animateTransform attributeName="transform" additive="sum" type="translate" repeatCount="indefinite" dur="1.25s" keyTimes="0;.467;.967;1" values="-.65,-33.9;-.65,-34;-.65,-33.9;-.65,-33.9" keySplines=".39 0 .548 1;.39 0 .548 1;.39 0 .548 1" calcMode="spline"/>
    </use>
    <use xlink:href="#.__D0.__BD.__D0.__BE.__D0.__B3.__D0.__B0_3" transform="matrix(-1 0 0 1 214.55 637.4)">
      <animateTransform attributeName="transform" additive="replace" type="translate" repeatCount="indefinite" dur="1.25s" keyTimes="0;.467;.967;1" values="213.9,671.3;213.9,663.32;213.9,671.3;213.9,671.3" keySplines=".39 0 .548 1;.39 0 .548 1;.39 0 .548 1" calcMode="spline"/>
      <animateTransform attributeName="transform" additive="sum" type="skewY" repeatCount="indefinite" dur="1.25s" keyTimes="0;1" values="180;180" keySplines=".39 0 .548 1" calcMode="spline"/>
      <animateTransform attributeName="transform" additive="sum" type="scale" repeatCount="indefinite" dur="1.25s" keyTimes="0;.467;.967;1" values="1,1;1,1.058;1,1;1,1" keySplines=".39 0 .548 1;.39 0 .548 1;.39 0 .548 1" calcMode="spline"/>
      <animateTransform attributeName="transform" additive="sum" type="scale" repeatCount="indefinite" dur="1.25s" keyTimes="0;1" values="-1,1;-1,1"/>
      <animateTransform attributeName="transform" additive="sum" type="translate" repeatCount="indefinite" dur="1.25s" keyTimes="0;1" values="-.65,-33.9;-.65,-33.9" keySplines=".39 0 .548 1" calcMode="spline"/>
    </use>
    <g id=".__D1.__82.__D0.__B5.__D0.__BB.__D0.__BE" transform="matrix(1 0 .009 1 170.4 533.05)">
      <animateTransform attributeName="transform" additive="replace" type="translate" repeatCount="indefinite" dur="1.25s" keyTimes="0;.467;.967;1" values="170.4,533.05;170.45,525.05;170.4,533.05;170.4,533.05" keySplines=".39 0 .548 1;.39 0 .548 1;.39 0 .548 1" calcMode="spline"/>
      <animateTransform attributeName="transform" additive="sum" type="rotate" repeatCount="indefinite" dur="1.25s" keyTimes="0;.467;.967;1" values="-.516,0,0;-.504,0,0;-.516,0,0;-.516,0,0" keySplines=".39 0 .548 1;.39 0 .548 1;.39 0 .548 1" calcMode="spline"/>
      <animateTransform attributeName="transform" additive="sum" type="skewY" repeatCount="indefinite" dur="1.25s" keyTimes="0;.467;.967;1" values=".516;.504;.516;.516" keySplines=".39 0 .548 1;.39 0 .548 1;.39 0 .548 1" calcMode="spline"/>
      <animateTransform attributeName="transform" additive="sum" type="translate" repeatCount="indefinite" dur="1.25s" keyTimes="0;.467;.967;1" values="0,0;-.05,0;0,0;0,0" keySplines=".39 0 .548 1;.39 0 .548 1;.39 0 .548 1" calcMode="spline"/>
      <path fill="#FFDECB" stroke="none" d="M5.85 174.65Q14.85 168.55 14.8 154.1 30.5 111.8 55.4 80.6L20.65 -171.7Q-.9 -183.45 -22.5 -172.4L-55.35 78Q-31.3 111.6 -23.55 155.05 -25.15 169.35 -14.15 175.05 -3.2 180.75 5.85 174.65M7.65 110.25Q-3.2 88.45 -.15 68 -3.2 88.45 7.65 110.25L-2.1 107.65Q6.25 122.45 6.65 136.2 .25 130.4 -3.75 129.4 3.05 140.3 3.75 151.15 3.05 140.3 -3.75 129.4 .25 130.4 6.65 136.2 6.25 122.45 -2.1 107.65L7.65 110.25Z"/>
      <path id="Layer15_0_1_STROKES" stroke="#000" stroke-width="6" stroke-linejoin="round" stroke-linecap="round" fill="none" d="M-23.55 155.05Q-25.15 169.35 -14.15 175.05 -3.2 180.75 5.85 174.65 14.85 168.55 14.8 154.1M3.75 151.15Q3.05 140.3 -3.75 129.4 .25 130.4 6.65 136.2 6.25 122.45 -2.1 107.65L7.65 110.25Q-3.2 88.45 -.15 68"/>
    </g>
    <use xlink:href="#.__D0.__BA.__D0.__BE.__D1.__81.__D1.__82.__D1.__8E.__D0.__BC" transform="matrix(1 0 -.01 1 165.65 376.4)">
      <animateTransform attributeName="transform" additive="replace" type="translate" repeatCount="indefinite" dur="1.25s" keyTimes="0;.467;.967;1" values="146.851,386.85;146.807,378.9;146.851,386.85;146.851,386.85" keySplines=".39 0 .548 1;.39 0 .548 1;.39 0 .548 1" calcMode="spline"/>
      <animateTransform attributeName="transform" additive="sum" type="rotate" repeatCount="indefinite" dur="1.25s" keyTimes="0;.467;.967;1" values=".546,0,0;.511,0,0;.546,0,0;.546,0,0" keySplines=".39 0 .548 1;.39 0 .548 1;.39 0 .548 1" calcMode="spline"/>
      <animateTransform attributeName="transform" additive="sum" type="skewY" repeatCount="indefinite" dur="1.25s" keyTimes="0;.467;.967;1" values="-.546;-.511;-.546;-.546" keySplines=".39 0 .548 1;.39 0 .548 1;.39 0 .548 1" calcMode="spline"/>
      <animateTransform attributeName="transform" additive="sum" type="scale" repeatCount="indefinite" dur="1.25s" keyTimes="0;.467;.967;1" values="1,1;1.099,1;1,1;1,1" keySplines=".39 0 .548 1;.39 0 .548 1;.39 0 .548 1" calcMode="spline"/>
      <animateTransform attributeName="transform" additive="sum" type="translate" repeatCount="indefinite" dur="1.25s" keyTimes="0;1" values="18.7,-10.45;18.7,-10.45" keySplines=".39 0 .548 1" calcMode="spline"/>
    </use>
    <use xlink:href="#.__D1.__80.__D1.__83.__D0.__BA.__D0.__B0_3" transform="matrix(.993 -.117 .117 .993 136.15 371.95)">
      <animateTransform attributeName="transform" additive="replace" type="translate" repeatCount="indefinite" dur="1.25s" keyTimes="0;.467;.967;1" values="122.278,403.184;123.537,393.671;122.278,403.184;122.278,403.184" keySplines=".39 0 .548 1;.39 0 .548 1;.39 0 .548 1" calcMode="spline"/>
      <animateTransform attributeName="transform" additive="sum" type="rotate" repeatCount="indefinite" dur="1.25s" keyTimes="0;.467;.967;1" values="-6.732,0,0;-3.856,0,0;-6.732,0,0;-6.732,0,0" keySplines=".39 0 .548 1;.39 0 .548 1;.39 0 .548 1" calcMode="spline"/>
      <animateTransform attributeName="transform" additive="sum" type="scale" repeatCount="indefinite" dur="1.25s" keyTimes="0;.467;.967;1" values="1,1;1,.999;1,1;1,1" keySplines=".39 0 .548 1;.39 0 .548 1;.39 0 .548 1" calcMode="spline"/>
      <animateTransform attributeName="transform" additive="sum" type="translate" repeatCount="indefinite" dur="1.25s" keyTimes="0;.467;.967;1" values="17.4,-29.4;17.5,-29.45;17.4,-29.4;17.4,-29.4" keySplines=".39 0 .548 1;.39 0 .548 1;.39 0 .548 1" calcMode="spline"/>
    </use>
    <use xlink:href="#.__D1.__80.__D1.__83.__D0.__BA.__D0.__B0_2" transform="matrix(.998 .061 -.061 .998 75.35 533.8)">
      <animateTransform attributeName="transform" additive="replace" type="translate" repeatCount="indefinite" dur="1.25s" keyTimes="0;.467;.967;1" values="76.918,546.465;71.464,534.624;76.918,546.465;76.918,546.465" keySplines=".39 0 .548 1;.39 0 .548 1;.39 0 .548 1" calcMode="spline"/>
      <animateTransform attributeName="transform" additive="sum" type="rotate" repeatCount="indefinite" dur="1.25s" keyTimes="0;.467;.967;1" values="3.493,0,0;3.799,0,0;3.493,0,0;3.493,0,0" keySplines=".39 0 .548 1;.39 0 .548 1;.39 0 .548 1" calcMode="spline"/>
      <animateTransform attributeName="transform" additive="sum" type="translate" repeatCount="indefinite" dur="1.25s" keyTimes="0;.467;.967;1" values="-2.4,-12.6;-2.4,-12.65;-2.4,-12.6;-2.4,-12.6" keySplines=".39 0 .548 1;.39 0 .548 1;.39 0 .548 1" calcMode="spline"/>
    </use>
    <use xlink:href="#.__D0.__BA.__D0.__B8.__D1.__81.__D1.__82.__D1.__8C" transform="matrix(.998 .061 -.061 .998 74.05 650.15)">
      <animateTransform attributeName="transform" additive="replace" type="translate" repeatCount="indefinite" dur="1.25s" keyTimes="0;.467;.967;1" values="70.403,652.546;64.088,640.62;70.403,652.546;70.403,652.546" keySplines=".39 0 .548 1;.39 0 .548 1;.39 0 .548 1" calcMode="spline"/>
      <animateTransform attributeName="transform" additive="sum" type="rotate" repeatCount="indefinite" dur="1.25s" keyTimes="0;.467;.967;1" values="3.493,0,0;3.799,0,0;3.493,0,0;3.493,0,0" keySplines=".39 0 .548 1;.39 0 .548 1;.39 0 .548 1" calcMode="spline"/>
      <animateTransform attributeName="transform" additive="sum" type="translate" repeatCount="indefinite" dur="1.25s" keyTimes="0;.467;.967;1" values="3.45,-2.65;3.4,-2.6;3.45,-2.65;3.45,-2.65" keySplines=".39 0 .548 1;.39 0 .548 1;.39 0 .548 1" calcMode="spline"/>
    </use>
    <use xlink:href="#.__D0.__BA.__D0.__BE.__D1.__81.__D1.__82.__D1.__8E.__D0.__BC" transform="matrix(-1 0 -.01 1 182.5 376.35)">
      <animateTransform attributeName="transform" additive="replace" type="translate" repeatCount="indefinite" dur="1.25s" keyTimes="0;.467;.967;1" values="201.214,386.85;201.241,378.85;201.205,386.8;201.205,386.8" keySplines=".39 0 .548 1;.39 0 .548 1;.323 .655 .656 1" calcMode="spline"/>
      <animateTransform attributeName="transform" additive="sum" type="rotate" repeatCount="indefinite" dur="1.25s" keyTimes="0;.467;.967;1" values=".748,0,0;.562,0,0;.563,0,0;.563,0,0" keySplines=".39 0 .548 1;.39 0 .548 1;.323 .655 .656 1" calcMode="spline"/>
      <animateTransform attributeName="transform" additive="sum" type="skewY" repeatCount="indefinite" dur="1.25s" keyTimes="0;.467;.967;1" values="179.252;179.438;179.437;179.437" keySplines=".39 0 .548 1;.39 0 .548 1;.323 .655 .656 1" calcMode="spline"/>
      <animateTransform attributeName="transform" additive="sum" type="scale" repeatCount="indefinite" dur="1.25s" keyTimes="0;.467;.967;1" values="1,1;1.058,1;1,1;1,1" keySplines=".39 0 .548 1;.39 0 .548 1;.323 .655 .656 1" calcMode="spline"/>
      <animateTransform attributeName="transform" additive="sum" type="scale" repeatCount="indefinite" dur="1.25s" keyTimes="0;1" values="-1,1;-1,1"/>
      <animateTransform attributeName="transform" additive="sum" type="translate" repeatCount="indefinite" dur="1.25s" keyTimes="0;1" values="18.8,-10.45;18.8,-10.45" keySplines=".39 0 .548 1" calcMode="spline"/>
    </use>
    <use xlink:href="#.__D1.__80.__D1.__83.__D0.__BA.__D0.__B0_3" transform="matrix(-.993 -.121 -.121 .993 212 371.85)">
      <animateTransform attributeName="transform" additive="replace" type="translate" repeatCount="indefinite" dur="1.25s" keyTimes="0;.467;.967;1" values="225.869,403.202;225.097,392.797;225.869,403.202;225.869,403.202" keySplines=".39 0 .548 1;.39 0 .548 1;.39 0 .548 1" calcMode="spline"/>
      <animateTransform attributeName="transform" additive="sum" type="rotate" repeatCount="indefinite" dur="1.25s" keyTimes="0;.467;.967;1" values="6.928,0,0;4.559,0,0;6.928,0,0;6.928,0,0" keySplines=".39 0 .548 1;.39 0 .548 1;.39 0 .548 1" calcMode="spline"/>
      <animateTransform attributeName="transform" additive="sum" type="skewY" repeatCount="indefinite" dur="1.25s" keyTimes="0;1" values="-180;-180" keySplines=".39 0 .548 1" calcMode="spline"/>
      <animateTransform attributeName="transform" additive="sum" type="scale" repeatCount="indefinite" dur="1.25s" keyTimes="0;1" values="-1,1;-1,1"/>
      <animateTransform attributeName="transform" additive="sum" type="translate" repeatCount="indefinite" dur="1.25s" keyTimes="0;.467;.967;1" values="17.55,-29.45;17.65,-29.45;17.55,-29.45;17.55,-29.45" keySplines=".39 0 .548 1;.39 0 .548 1;.39 0 .548 1" calcMode="spline"/>
    </use>
    <use xlink:href="#.__D1.__83.__D1.__85.__D0.__BE" transform="translate(85.05 160.75)">
      <animateTransform attributeName="transform" additive="replace" type="translate" repeatCount="indefinite" dur="1.25s" keyTimes="0;.467;.967;1" values="103.55,206.75;103.574,189.695;103.55,206.75;103.55,206.75" keySplines=".39 0 .548 1;.39 0 .548 1;.39 0 .548 1" calcMode="spline"/>
      <animateTransform attributeName="transform" additive="sum" type="rotate" repeatCount="indefinite" dur="1.25s" keyTimes="0;.467;.967;1" values="0,0,0;3.804,0,0;0,0,0;0,0,0" keySplines=".39 0 .548 1;.39 0 .548 1;.39 0 .548 1" calcMode="spline"/>
      <animateTransform attributeName="transform" additive="sum" type="skewY" repeatCount="indefinite" dur="1.25s" keyTimes="0;.467;.967;1" values="0;.331;0;0" keySplines=".39 0 .548 1;.39 0 .548 1;.39 0 .548 1" calcMode="spline"/>
      <animateTransform attributeName="transform" additive="sum" type="scale" repeatCount="indefinite" dur="1.25s" keyTimes="0;.467;.967;1" values="1,1;1,1.043;1,1;1,1" keySplines=".39 0 .548 1;.39 0 .548 1;.39 0 .548 1" calcMode="spline"/>
      <animateTransform attributeName="transform" additive="sum" type="translate" repeatCount="indefinite" dur="1.25s" keyTimes="0;1" values="-18.5,-46;-18.5,-46" keySplines=".39 0 .548 1" calcMode="spline"/>
    </use>
    <use xlink:href="#.__D1.__83.__D1.__85.__D0.__BE" transform="matrix(-.996 -.086 -.086 .996 269.4 148)">
      <animateTransform attributeName="transform" additive="replace" type="translate" repeatCount="indefinite" dur="1.25s" keyTimes="0;.467;.967;1" values="247.091,192.288;247.11,174.562;247.091,192.288;247.091,192.288" keySplines=".39 0 .548 1;.39 0 .548 1;.39 0 .548 1" calcMode="spline"/>
      <animateTransform attributeName="transform" additive="sum" type="rotate" repeatCount="indefinite" dur="1.25s" keyTimes="0;.467;.967;1" values="4.955,0,0;1.253,0,0;4.955,0,0;4.955,0,0" keySplines=".39 0 .548 1;.39 0 .548 1;.39 0 .548 1" calcMode="spline"/>
      <animateTransform attributeName="transform" additive="sum" type="skewY" repeatCount="indefinite" dur="1.25s" keyTimes="0;.467;.967;1" values="-180;-179.89;-180;-180" keySplines=".39 0 .548 1;.39 0 .548 1;.39 0 .548 1" calcMode="spline"/>
      <animateTransform attributeName="transform" additive="sum" type="scale" repeatCount="indefinite" dur="1.25s" keyTimes="0;.467;.967;1" values="1,1;1,1.043;1,1;1,1" keySplines=".39 0 .548 1;.39 0 .548 1;.39 0 .548 1" calcMode="spline"/>
      <animateTransform attributeName="transform" additive="sum" type="scale" repeatCount="indefinite" dur="1.25s" keyTimes="0;1" values="-1,1;-1,1"/>
      <animateTransform attributeName="transform" additive="sum" type="translate" repeatCount="indefinite" dur="1.25s" keyTimes="0;.467;.967;1" values="-18.4,-46.05;-18.45,-46;-18.4,-46.05;-18.4,-46.05" keySplines=".39 0 .548 1;.39 0 .548 1;.39 0 .548 1" calcMode="spline"/>
    </use>
    <g id=".__D0.__B3.__D0.__BE.__D0.__BB.__D0.__BE.__D0.__B2.__D0.__B0" transform="translate(168.9 371.4)">
      <animateTransform attributeName="transform" additive="replace" type="translate" repeatCount="indefinite" dur="1.25s" keyTimes="0;.467;.967;1" values="168.9,352.95;168.9,342.16;168.9,352.95;168.9,352.95" keySplines=".39 0 .548 1;.39 0 .548 1;.39 0 .548 1" calcMode="spline"/>
      <animateTransform attributeName="transform" additive="sum" type="scale" repeatCount="indefinite" dur="1.25s" keyTimes="0;.467;.967;1" values="1,1;1,1.043;1,1;1,1" keySplines=".39 0 .548 1;.39 0 .548 1;.39 0 .548 1" calcMode="spline"/>
      <animateTransform attributeName="transform" additive="sum" type="translate" repeatCount="indefinite" dur="1.25s" keyTimes="0;.467;.967;1" values="0,18.45;0,18.4;0,18.45;0,18.45" keySplines=".39 0 .548 1;.39 0 .548 1;.39 0 .548 1" calcMode="spline"/>
      <path fill="#FFDECB" stroke="none" d="M70.95 -75.85Q50.136 -56.503 9.75 -69.75 -3.65 -72.55 -14.25 -69.75 -51 -58.9 -71.2 -70.15 -91.4 -81.45 -99.95 -73.65 -97.15 -66.95 -93.25 -59.75 -97.35 -55.85 -108.75 -59.5 -91.65 -49.25 -77 -44.75L-96 -38.5Q-46.55 -21.55 -9.05 -2.4 1.85 2.4 11.75 -2.4 48.5 -33.95 89.95 -51.5 81 -52 75 -55.25 83.7 -58.55 100.5 -57.5 90.75 -64.3 88.75 -70 97.4 -78.9 102.3 -89 91.754 -95.149 70.95 -75.85Z"/>
      <path fill="#FA9A4E" stroke="none" d="M71.1 -208.8Q45.838 -230.025 4.05 -229.85 -37.599 -229.674 -64 -206.75 -57.339 -177.305 -98.85 -147.9 -103.833 -131.034 -106.5 -110.75 -108.45 -94.2 -99.95 -73.65 -91.4 -81.45 -71.2 -70.15 -51 -58.9 -14.25 -69.75 -3.65 -72.55 9.75 -69.75 50.136 -56.503 70.95 -75.85 91.754 -95.149 102.3 -89 109.3 -103.3 108.75 -120 107.255 -136.900 103.75 -151.2 51.396 -163.838 71.1 -208.8Z"/>
      <path id="Layer11_0_1_STROKES" stroke="#000" stroke-width="6" stroke-linejoin="round" stroke-linecap="round" fill="none" d="M-63.975 -206.725Q-57.339 -177.305 -98.85 -147.875M-106.5 -110.75Q-108.45 -94.2 -99.95 -73.65 -91.4 -81.45 -71.2 -70.15 -51 -58.9 -14.25 -69.75 -3.65 -72.55 9.75 -69.75 50.136 -56.503 70.95 -75.825 91.754 -95.149 102.3 -89 109.3 -103.3 108.75 -120M103.75 -151.2Q51.396 -163.838 71.125 -208.775M-99.95 -73.65Q-97.15 -66.95 -93.25 -59.75 -97.35 -55.85 -108.75 -59.5 -91.65 -49.25 -77 -44.75L-96 -38.5Q-46.55 -21.55 -9.05 -2.4 1.85 2.4 11.75 -2.4 48.5 -33.95 89.95 -51.5 81 -52 75 -55.25 83.7 -58.55 100.5 -57.5 90.75 -64.3 88.75 -70 97.4 -78.9 102.3 -89"/>
    </g>
    <use xlink:href="#.__D0.__B2.__D0.__BE.__D1.__80.__D0.__BE.__D1.__82.__D0.__BD.__D0.__B8.__D0.__BA" transform="translate(147.9 382)">
      <animateTransform attributeName="transform" additive="replace" type="translate" repeatCount="indefinite" dur="1.25s" keyTimes="0;.467;.967;1" values="136.65,364.5;136.692,354.9;136.65,364.5;136.65,364.5" keySplines=".39 0 .548 1;.39 0 .548 1;.39 0 .548 1" calcMode="spline"/>
      <animateTransform attributeName="transform" additive="sum" type="scale" repeatCount="indefinite" dur="1.25s" keyTimes="0;.467;.967;1" values="1,1;1.126,1;1,1;1,1" keySplines=".39 0 .548 1;.39 0 .548 1;.39 0 .548 1" calcMode="spline"/>
      <animateTransform attributeName="transform" additive="sum" type="translate" repeatCount="indefinite" dur="1.25s" keyTimes="0;.467;.967;1" values="11.25,17.5;11.15,17.5;11.25,17.5;11.25,17.5" keySplines=".39 0 .548 1;.39 0 .548 1;.39 0 .548 1" calcMode="spline"/>
    </use>
    <use xlink:href="#.__D0.__B2.__D0.__BE.__D1.__80.__D0.__BE.__D1.__82.__D0.__BD.__D0.__B8.__D0.__BA" transform="matrix(-1.105 .224 0 1 199.2 377.55)">
      <animateTransform attributeName="transform" additive="replace" type="translate" repeatCount="indefinite" dur="1.25s" keyTimes="0;.467;.967;1" values="211.69,357.665;211.753,348.118;211.69,357.665;211.69,357.665" keySplines=".39 0 .548 1;.39 0 .548 1;.39 0 .548 1" calcMode="spline"/>
      <animateTransform attributeName="transform" additive="sum" type="skewY" repeatCount="indefinite" dur="1.25s" keyTimes="0;.467;.967;1" values="168.525;168.685;168.525;168.525" keySplines=".39 0 .548 1;.39 0 .548 1;.39 0 .548 1" calcMode="spline"/>
      <animateTransform attributeName="transform" additive="sum" type="scale" repeatCount="indefinite" dur="1.25s" keyTimes="0;.467;.967;1" values="1.128,1;1.227,1;1.128,1;1.128,1" keySplines=".39 0 .548 1;.39 0 .548 1;.39 0 .548 1" calcMode="spline"/>
      <animateTransform attributeName="transform" additive="sum" type="scale" repeatCount="indefinite" dur="1.25s" keyTimes="0;.466;.966;1" values="-.98,1;-.981,1;-.98,1;-.98,1"/>
      <animateTransform attributeName="transform" additive="sum" type="translate" repeatCount="indefinite" dur="1.25s" keyTimes="0;.467;.967;1" values="11.3,17.35;11.35,17.3;11.3,17.35;11.3,17.35" keySplines=".39 0 .548 1;.39 0 .548 1;.39 0 .548 1" calcMode="spline"/>
    </use>
    <g id=".__D0.__92.__D0.__BE.__D0.__BB.__D0.__BE.__D1.__81.__D1.__8B" transform="matrix(1.092 .128 -.132 1.124 164.65 163.3)">
      <animateTransform attributeName="transform" additive="replace" type="translate" repeatCount="indefinite" dur="1.25s" keyTimes="0;.467;.967;1" values="198.624,153.129;198.558,133.573;198.624,153.129;198.624,153.129" keySplines=".39 0 .548 1;.39 0 .548 1;.39 0 .548 1" calcMode="spline"/>
      <animateTransform attributeName="transform" additive="sum" type="rotate" repeatCount="indefinite" dur="1.25s" keyTimes="0;.467;.967;1" values="6.696,0,0;7.534,0,0;6.696,0,0;6.696,0,0" keySplines=".39 0 .548 1;.39 0 .548 1;.39 0 .548 1" calcMode="spline"/>
      <animateTransform attributeName="transform" additive="sum" type="skewX" repeatCount="indefinite" dur="1.25s" keyTimes="0;.467;.967;1" values=".001;0;.001;.001" keySplines=".39 0 .548 1;.39 0 .548 1;.39 0 .548 1" calcMode="spline"/>
      <animateTransform attributeName="transform" additive="sum" type="skewY" repeatCount="indefinite" dur="1.25s" keyTimes="0;.467;.967;1" values="0;1.78;0;0" keySplines=".39 0 .548 1;.39 0 .548 1;.39 0 .548 1" calcMode="spline"/>
      <animateTransform attributeName="transform" additive="sum" type="scale" repeatCount="indefinite" dur="1.25s" keyTimes="0;.467;.967;1" values="1.099,1.132;1.101,1.178;1.099,1.132;1.099,1.132" keySplines=".39 0 .548 1;.39 0 .548 1;.39 0 .548 1" calcMode="spline"/>
      <animateTransform attributeName="transform" additive="sum" type="translate" repeatCount="indefinite" dur="1.25s" keyTimes="0;.467;.967;1" values="-29.65,12.4;-29.65,12.55;-29.65,12.4;-29.65,12.4" keySplines=".39 0 .548 1;.39 0 .548 1;.39 0 .548 1" calcMode="spline"/>
      <path fill="#BF7339" stroke="none" d="M49.5 -13.65Q41.1 -54.6 4.2 -66.7 20.4 -51.45 16.5 -34.65 -11.9 -65 -34.45 -41.15L-21.5 -42.15Q-47.4 -22.95 -36.8 8.3 -39.95 -13.55 -10.5 -28.15 -39.95 -13.55 -36.8 8.3 -35.9 15.45 -27.8 29.75 -19.7 44.05 -49.45 58.85 46.5 91.75 49.5 -13.65Z"/>
      <path id="Layer9_0_1_STROKES" stroke="#000" stroke-width="6" stroke-linejoin="round" stroke-linecap="round" fill="none" d="M-36.8 8.3Q-47.4 -22.95 -21.5 -42.15L-34.45 -41.15Q-11.9 -65 16.5 -34.65 20.4 -51.45 4.2 -66.7 41.1 -54.6 49.5 -13.65 46.5 91.75 -49.45 58.85 -19.7 44.05 -27.8 29.75 -35.9 15.45 -36.8 8.3 -39.95 -13.55 -10.5 -28.15"/>
    </g>
    <g id=".__D0.__BD.__D0.__BE.__D1.__81" transform="translate(168.65 328.9)">
      <animateTransform attributeName="transform" additive="replace" type="translate" repeatCount="indefinite" dur="1.25s" keyTimes="0;.467;.967;1" values="168.65,328.9;168.65,317.102;168.65,328.9;168.65,328.9" keySplines=".39 0 .548 1;.39 0 .548 1;.39 0 .548 1" calcMode="spline"/>
      <animateTransform attributeName="transform" additive="sum" type="scale" repeatCount="indefinite" dur="1.25s" keyTimes="0;.467;.967;1" values="1,1;1,1.043;1,1;1,1" keySplines=".39 0 .548 1;.39 0 .548 1;.39 0 .548 1" calcMode="spline"/>
      <animateTransform attributeName="transform" additive="sum" type="translate" repeatCount="indefinite" dur="1.25s" keyTimes="0;.467;.967;1" values="0,0;0,-.05;0,0;0,0" keySplines=".39 0 .548 1;.39 0 .548 1;.39 0 .548 1" calcMode="spline"/>
      <path fill="#262427" stroke="none" d="M-11.5 -16L-2.25 -3 5.25 -16Q-2.65 -21.45 -11.5 -16Z"/>
      <path id="Layer8_0_1_STROKES" stroke="#000" stroke-width="6" stroke-linejoin="round" stroke-linecap="round" fill="none" d="M-2.25 -3L-11.5 -16Q-2.65 -21.45 5.25 -16L-2.25 -3Q2.095 9.768 8.7 14.65 9.375 15.151 10.075 15.575 16.527 19.435 25 16.25M-25 18.75Q-19.405 18.459 -15.05 16.1 -14.201 15.638 -13.4 15.1 -5.569 9.815 -2.25 -3"/>
    </g>
    <g id=".__D0.__B3.__D0.__BB.__D0.__B0.__D0.__B7_3" transform="translate(126.4 284.45)">
      <animateTransform attributeName="transform" additive="replace" type="translate" repeatCount="indefinite" dur="1.25s" keyTimes="0;.467;.967;1" values="126.4,284.45;126.4,270.752;126.4,284.45;126.4,284.45" keySplines=".39 0 .548 1;.39 0 .548 1;.39 0 .548 1" calcMode="spline"/>
      <animateTransform attributeName="transform" additive="sum" type="scale" repeatCount="indefinite" dur="1.25s" keyTimes="0;.467;.967;1" values="1,1;1,1.043;1,1;1,1" keySplines=".39 0 .548 1;.39 0 .548 1;.39 0 .548 1" calcMode="spline"/>
      <animateTransform attributeName="transform" additive="sum" type="translate" repeatCount="indefinite" dur="1.25s" keyTimes="0;.467;.967;1" values="0,0;0,-.05;0,0;0,0" keySplines=".39 0 .548 1;.39 0 .548 1;.39 0 .548 1" calcMode="spline"/>
      <path fill="#009D34" stroke="none" d="M23.35 -4.15Q18.8 -10.3 12.35 -10.3 5.9 -10.3 1.3 -4.15 -3.25 2 -3.25 10.7 -3.25 16.664 -1.1 21.4 10.790 23.173 27.25 17.05 27.95 14.073 27.95 10.7 27.95 2 23.35 -4.15Z"/>
      <path fill="#FFF" stroke="none" d="M12.35 -10.3Q18.8 -10.3 23.35 -4.15 27.95 2 27.95 10.7 27.95 14.073 27.25 17.05 28.978 16.424 30.75 15.7 35 -24.95 -31 -21.55 -26.393 17.704 -1.1 21.4 -3.25 16.664 -3.25 10.7 -3.25 2 1.3 -4.15 5.9 -10.3 12.35 -10.3Z"/>
      <path id="Layer7_0_1_STROKES" stroke="#000" stroke-width="6" stroke-linejoin="round" stroke-linecap="round" fill="none" d="M-1.1 21.425Q-3.25 16.664 -3.25 10.7 -3.25 2 1.3 -4.15 5.9 -10.3 12.35 -10.3 18.8 -10.3 23.35 -4.15 27.95 2 27.95 10.7 27.95 14.073 27.25 17.075 28.978 16.424 30.75 15.7 35 -24.95 -31 -21.55 -26.393 17.704 -1.1 21.425 10.790 23.173 27.25 17.075"/>
    </g>
    <g id=".__D0.__B3.__D0.__BB.__D0.__B0.__D0.__B7_2" transform="translate(209.4 284.45)">
      <animateTransform attributeName="transform" additive="replace" type="translate" repeatCount="indefinite" dur="1.25s" keyTimes="0;.467;.967;1" values="209.4,284.45;209.4,270.752;209.4,284.45;209.4,284.45" keySplines=".39 0 .548 1;.39 0 .548 1;.39 0 .548 1" calcMode="spline"/>
      <animateTransform attributeName="transform" additive="sum" type="scale" repeatCount="indefinite" dur="1.25s" keyTimes="0;.467;.967;1" values="1,1;1,1.043;1,1;1,1" keySplines=".39 0 .548 1;.39 0 .548 1;.39 0 .548 1" calcMode="spline"/>
      <animateTransform attributeName="transform" additive="sum" type="translate" repeatCount="indefinite" dur="1.25s" keyTimes="0;.467;.967;1" values="0,0;0,-.05;0,0;0,0" keySplines=".39 0 .548 1;.39 0 .548 1;.39 0 .548 1" calcMode="spline"/>
      <path fill="#FFF" stroke="none" d="M-23.4 -5.95Q-18.8 -12.1 -12.35 -12.1 -5.9 -12.1 -1.3 -5.95 3.25 .2 3.25 8.9 3.25 16.096 .15 21.55 26.306 18.449 31 -21.55 -35 -24.95 -30.75 15.7 -28.700 16.538 -26.75 17.25 -27.95 13.425 -27.95 8.9 -27.95 .2 -23.4 -5.95Z"/>
      <path fill="#009D34" stroke="none" d="M-12.35 -12.1Q-18.8 -12.1 -23.4 -5.95 -27.95 .2 -27.95 8.9 -27.95 13.425 -26.75 17.25 -11.249 22.901 .15 21.55 3.25 16.096 3.25 8.9 3.25 .2 -1.3 -5.95 -5.9 -12.1 -12.35 -12.1Z"/>
      <path id="Layer6_0_1_STROKES" stroke="#000" stroke-width="6" stroke-linejoin="round" stroke-linecap="round" fill="none" d="M.15 21.55Q3.25 16.096 3.25 8.9 3.25 .2 -1.3 -5.95 -5.9 -12.1 -12.35 -12.1 -18.8 -12.1 -23.4 -5.95 -27.95 .2 -27.95 8.9 -27.95 13.425 -26.725 17.25 -11.249 22.901 .15 21.55 26.306 18.449 31 -21.55 -35 -24.95 -30.75 15.7 -28.700 16.538 -26.725 17.25"/>
    </g>
    <use xlink:href="#.__D0.__B1.__D1.__80.__D0.__BE.__D0.__B2.__D1.__8Cf1" transform="translate(124.15 258.25)">
      <animateTransform attributeName="transform" additive="replace" type="translate" repeatCount="indefinite" dur="1.25s" keyTimes="0;.467;.967;1" values="124.15,258.25;124.15,243.404;124.15,258.25;124.15,258.25" keySplines=".39 0 .548 1;.39 0 .548 1;.39 0 .548 1" calcMode="spline"/>
      <animateTransform attributeName="transform" additive="sum" type="scale" repeatCount="indefinite" dur="1.25s" keyTimes="0;.467;.967;1" values="1,1;1,1.043;1,1;1,1" keySplines=".39 0 .548 1;.39 0 .548 1;.39 0 .548 1" calcMode="spline"/>
      <animateTransform attributeName="transform" additive="sum" type="translate" repeatCount="indefinite" dur="1.25s" keyTimes="0;.467;.967;1" values="0,0;0,-.1;0,0;0,0" keySplines=".39 0 .548 1;.39 0 .548 1;.39 0 .548 1" calcMode="spline"/>
    </use>
    <use xlink:href="#.__D0.__B1.__D1.__80.__D0.__BE.__D0.__B2.__D1.__8Cf1" transform="matrix(-1 0 0 1 209.9 258.25)">
      <animateTransform attributeName="transform" additive="replace" type="translate" repeatCount="indefinite" dur="1.25s" keyTimes="0;.467;.967;1" values="209.9,258.25;209.9,243.35;209.9,258.25;209.9,258.25" keySplines=".39 0 .548 1;.39 0 .548 1;.39 0 .548 1" calcMode="spline"/>
      <animateTransform attributeName="transform" additive="sum" type="skewY" repeatCount="indefinite" dur="1.25s" keyTimes="0;1" values="180;180" keySplines=".39 0 .548 1" calcMode="spline"/>
      <animateTransform attributeName="transform" additive="sum" type="scale" repeatCount="indefinite" dur="1.25s" keyTimes="0;.467;.967;1" values="1,1;1,1.043;1,1;1,1" keySplines=".39 0 .548 1;.39 0 .548 1;.39 0 .548 1" calcMode="spline"/>
      <animateTransform attributeName="transform" additive="sum" type="scale" repeatCount="indefinite" dur="1.25s" keyTimes="0;1" values="-1,1;-1,1"/>
    </use>
    <use xlink:href="#.__D1.__80.__D1.__83.__D0.__BA.__D0.__B0_2" transform="matrix(-1 .009 .009 1 272.85 533.9)">
      <animateTransform attributeName="transform" additive="replace" type="translate" repeatCount="indefinite" dur="1.25s" keyTimes="0;.467;.967;1" values="270.67,546.621;275.382,534.34;270.67,546.621;270.67,546.621" keySplines=".39 0 .548 1;.39 0 .548 1;.39 0 .548 1" calcMode="spline"/>
      <animateTransform attributeName="transform" additive="sum" type="rotate" repeatCount="indefinite" dur="1.25s" keyTimes="0;.467;.967;1" values="-.54,0,0;-1.044,0,0;-.54,0,0;-.54,0,0" keySplines=".39 0 .548 1;.39 0 .548 1;.39 0 .548 1" calcMode="spline"/>
      <animateTransform attributeName="transform" additive="sum" type="skewY" repeatCount="indefinite" dur="1.25s" keyTimes="0;1" values="180;180" keySplines=".39 0 .548 1" calcMode="spline"/>
      <animateTransform attributeName="transform" additive="sum" type="scale" repeatCount="indefinite" dur="1.25s" keyTimes="0;1" values="-1,1;-1,1"/>
      <animateTransform attributeName="transform" additive="sum" type="translate" repeatCount="indefinite" dur="1.25s" keyTimes="0;.467;.967;1" values="-2.3,-12.7;-2.35,-12.7;-2.3,-12.7;-2.3,-12.7" keySplines=".39 0 .548 1;.39 0 .548 1;.39 0 .548 1" calcMode="spline"/>
    </use>
    <use xlink:href="#.__D0.__BA.__D0.__B8.__D1.__81.__D1.__82.__D1.__8C" transform="matrix(-1 .009 .009 1 268.25 650.15)">
      <animateTransform attributeName="transform" additive="replace" type="translate" repeatCount="indefinite" dur="1.25s" keyTimes="0;.467;.967;1" values="271.675,652.768;277.447,640.486;271.675,652.768;271.675,652.768" keySplines=".39 0 .548 1;.39 0 .548 1;.39 0 .548 1" calcMode="spline"/>
      <animateTransform attributeName="transform" additive="sum" type="rotate" repeatCount="indefinite" dur="1.25s" keyTimes="0;.467;.967;1" values="-.54,0,0;-1.044,0,0;-.54,0,0;-.54,0,0" keySplines=".39 0 .548 1;.39 0 .548 1;.39 0 .548 1" calcMode="spline"/>
      <animateTransform attributeName="transform" additive="sum" type="skewY" repeatCount="indefinite" dur="1.25s" keyTimes="0;1" values="180;180" keySplines=".39 0 .548 1" calcMode="spline"/>
      <animateTransform attributeName="transform" additive="sum" type="scale" repeatCount="indefinite" dur="1.25s" keyTimes="0;1" values="-1,1;-1,1"/>
      <animateTransform attributeName="transform" additive="sum" type="translate" repeatCount="indefinite" dur="1.25s" keyTimes="0;.467;.967;1" values="3.4,-2.65;3.5,-2.65;3.4,-2.65;3.4,-2.65" keySplines=".39 0 .548 1;.39 0 .548 1;.39 0 .548 1" calcMode="spline"/>
    </use>
    <use xlink:href="#.__D0.__BD.__D0.__BE.__D0.__B3.__D0.__B0_2" transform="translate(111.95 815.55)">
      <animateTransform attributeName="transform" additive="replace" type="translate" repeatCount="indefinite" dur="1.25s" keyTimes="0;.467;.967;1" values="105.1,832.65;105.1,830.069;105.1,832.65;105.1,832.65" keySplines=".39 0 .548 1;.39 0 .548 1;.39 0 .548 1" calcMode="spline"/>
      <animateTransform attributeName="transform" additive="sum" type="scale" repeatCount="indefinite" dur="1.25s" keyTimes="0;.467;.967;1" values="1,1;1,1.036;1,1;1,1" keySplines=".39 0 .548 1;.39 0 .548 1;.39 0 .548 1" calcMode="spline"/>
      <animateTransform attributeName="transform" additive="sum" type="translate" repeatCount="indefinite" dur="1.25s" keyTimes="0;.467;.967;1" values="6.85,-17.1;6.85,-17.15;6.85,-17.1;6.85,-17.1" keySplines=".39 0 .548 1;.39 0 .548 1;.39 0 .548 1" calcMode="spline"/>
    </use>
    <use xlink:href="#.__D1.__81.__D1.__82.__D1.__83.__D0.__BF.__D0.__BD.__D1.__8F" transform="translate(125.1 1016.85)"/>
    <use xlink:href="#.__D0.__BD.__D0.__BE.__D0.__B3.__D0.__B0_2" transform="matrix(-1 0 0 1 227 815.55)">
      <animateTransform attributeName="transform" additive="replace" type="translate" repeatCount="indefinite" dur="1.25s" keyTimes="0;.467;.967;1" values="233.85,832.65;233.85,830.068;233.85,832.65;233.85,832.65" keySplines=".39 0 .548 1;.39 0 .548 1;.39 0 .548 1" calcMode="spline"/>
      <animateTransform attributeName="transform" additive="sum" type="skewY" repeatCount="indefinite" dur="1.25s" keyTimes="0;1" values="180;180" keySplines=".39 0 .548 1" calcMode="spline"/>
      <animateTransform attributeName="transform" additive="sum" type="scale" repeatCount="indefinite" dur="1.25s" keyTimes="0;.467;.967;1" values="1,1;1,1.036;1,1;1,1" keySplines=".39 0 .548 1;.39 0 .548 1;.39 0 .548 1" calcMode="spline"/>
      <animateTransform attributeName="transform" additive="sum" type="scale" repeatCount="indefinite" dur="1.25s" keyTimes="0;1" values="-1,1;-1,1"/>
      <animateTransform attributeName="transform" additive="sum" type="translate" repeatCount="indefinite" dur="1.25s" keyTimes="0;1" values="6.85,-17.1;6.85,-17.1" keySplines=".39 0 .548 1" calcMode="spline"/>
    </use>
    <use xlink:href="#.__D1.__81.__D1.__82.__D1.__83.__D0.__BF.__D0.__BD.__D1.__8F" transform="matrix(-1 0 0 1 213.85 1016.85)"/>
  </g>
</svg>